<svg width="78" height="93" viewBox="0 0 78 93" fill="none" xmlns="http://www.w3.org/2000/svg">
<path d="M0.20378 82.6665L8.34476 39.8846L10.7837 27.425C11.2552 25.0056 11.7266 22.5826 12.1944 20.1633C12.9183 16.417 13.6533 12.6707 14.3586 8.92073C14.6519 7.32617 14.9563 5.73527 15.257 4.14071C15.2904 3.95743 15.3275 3.77048 15.4129 3.60552C15.6282 3.2023 16.0885 3.19497 16.4932 3.24629C17.0649 3.3196 17.592 3.5652 18.1525 3.6715C18.7465 3.78514 19.3293 3.40391 19.4518 2.81741C19.4518 2.80274 19.4593 2.78808 19.4593 2.77342C19.8194 0.977244 21.527 -0.236089 23.3646 0.0388352L32.5858 1.42079L44.4539 3.10333L76.4499 9.23964C77.3853 9.41926 78.0424 10.2477 77.9979 11.1861L73.9032 86.981C73.8364 88.2236 72.7859 89.1877 71.5237 89.173C71.5014 89.173 71.4828 89.173 71.4606 89.173C70.3209 89.1657 69.3743 90.0491 69.2926 91.1745L69.2741 91.4567C69.2035 92.4208 68.3831 93.0953 67.4625 92.989H67.4439L62.5066 92.4538L51.2362 91.2588L46.195 90.6943L38.4623 89.8585L23.9511 88.3299L7.43155 86.5264C5.36382 86.3028 3.35178 86.1452 1.31003 85.8629C0.508185 85.753 -0.0709271 85.0382 0.00703034 84.2391C0.0775632 83.5169 0.181506 82.7691 0.20378 82.6665ZM4.75501 84.0301L11.3406 84.7083L25.1873 86.2332L31.1492 86.8783L37.6159 87.5711L48.6376 88.7918L50.0854 88.9458L51.5406 89.1034L67.2769 90.7859L67.3808 88.066L67.5516 85.522L67.8708 80.4414L68.2755 75.1812L68.4277 72.6996L68.5947 70.2692L68.7729 67.9599L68.9622 65.2619L69.1441 62.575L69.3075 60.3463L69.5154 57.6154L69.6787 55.3427L69.8532 53.0846L70.0276 50.5443L70.2467 47.1389L70.3989 44.9982L70.5733 42.3112L70.7478 39.5253L70.9557 36.6441L71.1079 34.2358L71.2898 31.5525L71.4531 29.3018L71.6982 26.0174L72.2698 17.733L72.4926 15.0827C72.5446 14.4595 72.0954 13.9134 71.4717 13.8217C71.4717 13.8217 71.4643 13.8217 71.4606 13.8217L44.0307 9.70518L27.0545 7.21253L19.1957 6.00286C18.1229 5.83791 17.1057 6.54172 16.9052 7.59743L15.8027 13.3305L13.7127 24.5621L12.87 28.7116L11.5373 35.889L2.73925 81.3468C2.48682 82.6518 3.4186 83.8908 4.75501 84.0338V84.0301Z" fill="#31374B"/>
<path d="M61.7419 26.5819C62.1428 26.6405 62.4918 26.4023 62.5289 26.1457C62.8296 24.0782 63.0412 22.1538 63.2342 20.0643C63.2713 19.6611 62.9929 19.2945 62.5883 19.2102C61.5229 18.9903 60.5168 18.8253 59.4366 18.6604L54.8259 17.9566L44.9105 16.593L30.0095 14.4595L27.4035 14.1003C26.9989 14.0453 26.6128 14.2946 26.5126 14.6831C26.0782 16.3657 25.8258 18.0262 25.5659 19.7601C25.5325 19.9764 25.5065 20.2183 25.5177 20.4566C25.5362 20.8158 25.8221 21.1127 26.1822 21.175L29.5232 21.7652L41.2688 23.5064L61.7456 26.5855L61.7419 26.5819Z" fill="#31374B"/>
<path d="M60.4946 76.8527C59.2955 75.5441 57.5879 76.8161 56.8157 76.0573C56.1252 72.399 53.0218 69.844 49.2279 69.6827C48.7007 69.6607 48.233 69.6754 48.0548 69.0339C47.0042 65.2766 42.104 64.5215 38.6071 65.7531L37.2373 66.237C32.8642 67.7766 27.3181 72.168 24.3483 75.4708C24.6342 75.9107 24.8123 76.5558 25.2355 76.6181C25.629 76.6695 26.4086 76.3286 26.713 76.0573L28.0494 74.8696C30.7 72.5163 33.4842 70.4158 36.6767 68.8286C38.5588 67.8975 40.4818 67.4137 42.5978 67.6043C43.9342 67.7216 46.0093 68.3154 46.0762 70.009C44.9105 70.5148 43.834 70.929 42.7574 71.5192C41.3579 72.2853 37.0034 75.4451 36.3797 76.8454C35.6187 78.5573 36.6767 80.4451 38.4734 81.0389C39.4015 81.3505 40.5635 81.1489 41.4804 80.6944C44.736 79.0595 48.2627 75.83 48.4557 72.0104C49.8367 71.8784 51.0914 72.1937 52.2719 72.8938C53.5155 73.627 55.0784 76.1783 54.1652 76.4825L51.9675 77.2193C50.5643 77.6885 49.1685 78.473 48.3778 79.7046C47.6799 80.7823 47.7875 82.091 48.3963 83.0147C49.0831 84.0558 50.2859 84.36 51.4775 84.1987C54.0389 83.8505 55.9433 81.6988 56.4965 79.2318C56.5373 79.0375 56.7415 78.6563 56.8677 78.4986L59.7484 78.4876C60.4797 78.484 60.94 77.3293 60.4983 76.8454L60.4946 76.8527ZM43.2251 76.7538C42.1709 77.7765 40.931 78.6783 39.3792 78.9239C39.034 78.9825 38.4103 78.462 38.3175 78.1504C38.1765 77.6592 38.6071 77.2413 38.9598 76.9737L41.7217 74.866C42.3045 74.4224 42.917 73.9642 43.5778 73.6196L45.3337 72.6959C45.4748 72.6262 45.9165 72.6776 45.9759 72.7949C46.3917 73.6636 43.9193 76.083 43.2251 76.7538ZM52.1383 81.6071C51.5814 81.9737 50.8947 82.2339 50.2524 81.6951C50.1077 81.5705 49.9332 81.1709 49.9518 81.0096C49.9926 80.5954 51.1619 80.1885 52.0418 79.668C52.658 79.3087 53.3076 78.9972 54.1318 78.9862C54.5104 80.1189 52.8956 81.1159 52.1383 81.6071Z" fill="#31374B"/>
<path d="M60.243 54.3232L31.2364 51.2015C30.6291 51.1362 30.083 51.5694 30.0168 52.1691L29.9802 52.5007C29.914 53.1005 30.3527 53.6397 30.9601 53.705L59.9667 56.8267C60.5741 56.8921 61.1201 56.4589 61.1863 55.8591L61.2229 55.5275C61.2891 54.9278 60.8504 54.3886 60.243 54.3232Z" fill="#31374B"/>
<path d="M33.5621 41.0392C33.28 41.0026 32.9942 40.9586 32.7232 40.9073C32.1849 40.8083 31.8062 40.3281 31.8285 39.7893L31.8434 39.463C31.8508 39.3164 31.8731 38.9791 31.977 38.8948C32.0995 38.7922 32.4262 38.7629 32.6563 38.7849L42.8613 39.8992L50.6051 40.8266L53.7605 41.2629C54.3693 41.3472 54.7925 41.9043 54.7034 42.5055C54.6143 43.0883 54.0761 43.4989 53.4821 43.4329L50.0037 43.0407L44.9179 42.4359L33.5658 41.0356L33.5621 41.0392Z" fill="#31374B"/>
<path d="M21.5567 41.4095C18.9841 41.2958 18.4161 36.1932 18.1785 34.2834C18.1414 33.9938 18.1934 33.5173 18.3493 33.2827C18.4829 33.0848 18.9247 32.9675 19.2328 32.9345C19.7897 32.8722 20.1906 33.2057 20.2648 33.7336C20.5284 35.5811 20.8217 37.3039 21.5604 39.1771C22.2583 38.6346 22.6184 38.0554 23.0527 37.3992L29.1408 28.1581C29.3339 27.8649 29.6643 27.5936 29.8981 27.5093C30.351 27.3443 30.9858 27.7329 31.3942 28.1068C31.4907 28.1948 31.4165 28.62 31.3348 28.7446L28.1422 33.6053L25.0759 38.1397C24.352 39.2101 22.8708 41.3362 21.553 41.4168L21.5567 41.4095Z" fill="#31374B"/>
<path d="M17.2913 53.8434C16.4895 52.4211 16.2927 51.0208 16.0663 49.4923C15.9586 48.7628 15.8547 47.9124 16.3521 47.3185C16.5711 47.0546 17.1131 46.9373 17.3952 47.0216C17.7256 47.1206 17.8222 47.5238 17.9038 47.9124L18.7873 52.0399C18.8839 52.4908 18.9136 52.8463 19.3182 53.3009C22.4662 49.375 24.4708 45.5517 27.4258 41.6184C28.1088 41.5854 28.8587 41.93 29.3524 42.4139L26.7019 46.3618L25.5919 48.059L21.9094 53.4878C21.3414 54.3273 20.4282 55.2913 19.4036 55.4123C18.4904 55.5223 17.6997 54.5582 17.295 53.8434H17.2913Z" fill="#31374B"/>
</svg>
