<svg width="77" height="78" viewBox="0 0 77 78" fill="none" xmlns="http://www.w3.org/2000/svg">
<path d="M37.2094 78C34.2494 78 31.1218 77.272 28.1702 75.8961C27.6313 75.6442 27.1007 75.3951 26.5757 75.1487C23.8838 73.8837 21.3399 72.6906 18.5223 71.5944C17.9945 71.3895 17.3523 71.2926 16.4978 71.2926C16.0287 71.2926 15.5344 71.3203 15.0569 71.348C14.5794 71.3757 14.0851 71.4033 13.6104 71.4033C13.4903 71.4033 13.3758 71.4033 13.2669 71.3978C13.0296 73.2857 11.8512 75.1487 9.65908 75.2512C8.62308 75.2982 7.60663 75.3204 6.55388 75.3204C5.50112 75.3204 4.54331 75.2982 3.47939 75.2567C1.56098 75.182 0 73.402 0 71.2926V42.6499C0 40.7038 1.42415 38.6083 3.54641 38.5917L9.3938 38.5446C11.4909 38.5446 13.1078 40.2388 13.2446 42.5253L25.5928 42.4866C27.8547 42.4866 29.5888 43.2174 31.496 44.3164L47.6057 53.5954C49.4152 54.639 50.3786 56.6128 50.4735 59.4668L67.8565 49.5317C68.8674 48.9559 69.9871 48.6486 71.0957 48.6486C73.218 48.6486 75.1169 49.7448 76.1808 51.5829C77.0325 53.0556 77.2196 54.7055 76.7086 56.2308C76.2087 57.7201 75.0638 59.035 73.4861 59.9291L45.2851 75.9294C42.8669 77.3024 40.1526 77.9972 37.215 77.9972L37.2094 78ZM16.7714 68.84C17.9108 68.84 19.1311 68.9313 21.5354 70.0275L30.4489 74.0885C32.4287 74.9909 34.5398 75.4477 36.7235 75.4477C39.6528 75.4477 42.6658 74.6089 45.4443 73.02L72.3328 57.637C73.366 57.0446 74.0753 56.2003 74.3238 55.2619C74.5388 54.4508 74.402 53.601 73.9245 52.8065C73.3102 51.7739 72.2853 51.1815 71.1181 51.1815C70.4367 51.1815 69.7274 51.3836 69.0656 51.7629L48.53 63.5444C47.2426 64.8233 45.6593 65.4987 43.9504 65.4987C42.7105 65.4987 41.4232 65.1361 40.228 64.4468L29.7703 58.4287C29.4994 58.2737 29.3961 57.8889 29.3598 57.6758C29.3012 57.338 29.3095 56.8536 29.5246 56.6045C29.7563 56.3332 30.2506 56.2363 30.6024 56.2363C30.7951 56.2363 31.0688 56.264 31.2894 56.3885L41.8058 62.4094C42.4508 62.7804 43.1433 62.9658 43.8582 62.9658C45.2768 62.9658 46.5725 62.2295 47.3292 60.9949C47.8737 60.1063 48.0385 58.9519 47.7676 57.9028C47.5135 56.9173 46.902 56.1034 46.0447 55.6107L29.7982 46.2763C28.7594 45.6839 27.5587 45.0527 26.4445 45.0499L13.2083 45.0306L13.1971 68.7016C14.1884 68.8344 14.9312 68.8511 15.4785 68.8511C15.7187 68.8511 15.9449 68.8483 16.1655 68.8427C16.3721 68.84 16.5732 68.8372 16.7742 68.8372L16.7714 68.84ZM4.03788 41.0803C3.63577 41.0803 3.26716 41.2326 2.9963 41.5066C2.72264 41.7862 2.57185 42.1738 2.57185 42.5945L2.58022 71.3591C2.58022 72.2393 3.33139 72.7875 4.02392 72.7875H9.15644C9.75961 72.7875 10.6336 72.2975 10.6336 71.5224L10.6504 42.4146C10.6504 41.5869 9.88248 41.0914 9.13689 41.0886L4.03788 41.0775V40.8007L4.03509 41.0775L4.03788 41.0803Z" fill="white"/>
<path d="M73.3409 59.691L45.1399 75.6913C39.8538 78.6893 33.568 78.1052 28.2875 75.6442C24.9952 74.1079 22.0045 72.6518 18.6228 71.3369C16.9948 70.703 14.8307 71.2262 13.0156 71.1099C12.8592 73.0947 11.7059 74.8802 9.64791 74.9743C7.58988 75.0685 5.5849 75.0657 3.49335 74.9799C1.64754 74.9051 0.279245 73.1335 0.279245 71.2899V42.6444C0.279245 40.7786 1.63358 38.8768 3.54641 38.863L9.36308 38.8187C11.5328 38.8021 12.957 40.6512 12.9737 42.7994L25.5593 42.7579C27.7765 42.7495 29.4771 43.4693 31.3536 44.5489L47.4632 53.8279C49.5492 55.0294 50.1999 57.4405 50.1999 59.9374L67.9933 49.767C70.8807 48.1171 74.3322 48.9448 75.9351 51.7158C77.6301 54.6473 76.4461 57.9221 73.3437 59.6855L73.3409 59.691ZM9.15644 73.067C9.90202 73.067 10.9129 72.4608 10.9129 71.5252L10.9296 42.4174C10.9296 41.418 10.0053 40.8173 9.13968 40.8146L4.04067 40.8035C3.05494 40.8035 2.2926 41.5675 2.2926 42.5945L2.30098 71.3591C2.30098 72.3612 3.13871 73.0643 4.02392 73.0643H9.15644V73.067ZM48.3568 63.3202C46.0503 65.6316 42.9925 65.7147 40.3676 64.206L29.9099 58.1879C29.5972 58.008 29.5022 57.0529 29.7368 56.7816C29.9714 56.5103 30.7812 56.4162 31.1498 56.6266L41.6661 62.6447C43.8247 63.8793 46.363 63.0987 47.5666 61.136C48.6835 59.3145 48.2842 56.5768 46.1843 55.3698L29.9378 46.0354C28.9074 45.4486 27.6508 44.7731 26.4445 44.7731L12.929 44.7537L12.9179 68.9424C16.844 69.5182 17.2825 68.3915 21.4209 70.2767L30.3344 74.3376C35.3468 76.6214 40.8703 75.9571 45.5839 73.258L72.4724 57.8751C74.4774 56.729 75.3486 54.6501 74.1646 52.6625C73.0672 50.8189 70.8835 50.3981 68.926 51.5193L48.3596 63.3174L48.3568 63.3202Z" fill="white"/>
<path d="M53.8468 47.6631C52.4562 47.6631 51.1409 47.0541 50.2389 45.9939C49.3872 44.989 49.0047 43.7184 49.1443 42.3841L39.2199 37.872C38.103 38.9765 36.8184 39.5578 35.4864 39.5578C34.9503 39.5578 34.4086 39.4609 33.8752 39.2727C31.9791 38.5945 30.6974 36.7342 30.7644 34.7522C30.8342 32.6511 32.1271 30.9846 34.174 30.3286L34.1852 17.6197C32.2723 16.7865 31.0855 15.3498 30.9096 13.6362C30.703 11.6237 31.7669 9.70259 33.5597 8.85275C34.2522 8.52333 34.967 8.35724 35.6819 8.35724C36.9888 8.35724 38.237 8.92749 39.2283 9.97111L49.1694 5.43124C48.9879 3.54055 49.6916 1.85747 51.0906 0.883061C51.92 0.304504 52.8722 0 53.844 0C54.8158 0 55.7736 0.298967 56.6309 0.866451C58.0159 1.77996 58.7252 3.44089 58.6079 5.45892L68.5798 10.0071C69.7358 8.91365 71.0092 8.3351 72.2797 8.3351C72.9248 8.3351 73.5726 8.48181 74.2037 8.77524C75.7647 9.49498 77.2252 11.2777 76.9711 13.639C76.784 15.3774 75.4939 16.8723 73.4945 17.6806V30.2732C75.505 31.0345 76.7979 32.5376 76.9766 34.3508C77.1749 36.366 76.0272 38.3426 74.1814 39.1592C73.5587 39.4332 72.9248 39.5744 72.2909 39.5744C70.9868 39.5744 69.7163 39.0014 68.5099 37.872L58.6414 42.3454C58.7196 43.7793 58.27 45.1413 57.3848 46.1268C56.5024 47.1095 55.2542 47.6576 53.8747 47.6659H53.8468V47.6631ZM53.8719 40.7343C52.6349 40.7343 51.6268 41.7336 51.6268 42.9599C51.6268 44.1863 52.6349 45.1856 53.8719 45.1856C55.109 45.1856 56.1171 44.1863 56.1171 42.9599C56.1171 41.7336 55.109 40.7343 53.8719 40.7343ZM50.1161 40.0782C50.8449 39.2561 51.6603 38.7689 52.6209 38.3481L52.6069 25.9742C50.2306 25.2517 48.8595 23.1561 49.1583 20.6924L39.2562 16.1525C38.5525 16.8307 37.8293 17.3318 36.7151 17.6474L36.6984 30.287C39.0999 30.9929 40.4933 33.0968 40.2057 35.5826L50.1189 40.0782H50.1161ZM55.1369 38.3979C56.0975 38.7301 56.8654 39.2311 57.6724 40.0533L67.5158 35.5688C67.2282 33.1466 68.5909 31.0511 70.9505 30.2926V17.6612C69.9955 17.2294 69.2723 16.756 68.563 16.0999L58.58 20.6758C58.9039 23.1257 57.5384 25.2295 55.1397 25.9714L55.1341 38.3979H55.1369ZM35.5088 32.629C34.2689 32.629 33.2609 33.6283 33.2609 34.8574C33.2609 36.0865 34.2689 37.0858 35.5088 37.0858C36.7486 37.0858 37.7567 36.0865 37.7567 34.8574C37.7567 33.6283 36.7486 32.629 35.5088 32.629ZM72.2295 32.6345C70.9952 32.6345 69.9927 33.6283 69.9927 34.8518C69.9927 36.0754 70.9952 37.0692 72.2295 37.0692C73.4637 37.0692 74.4662 36.0754 74.4662 34.8518C74.4662 33.6283 73.4637 32.6345 72.2295 32.6345ZM53.8691 19.2114C52.6321 19.2114 51.624 20.2107 51.624 21.4371C51.624 22.6634 52.6321 23.6627 53.8691 23.6627C55.1062 23.6627 56.1143 22.6634 56.1143 21.4371C56.1143 20.2107 55.1062 19.2114 53.8691 19.2114ZM50.2082 18.4252C51.2051 17.3041 52.4589 16.7366 53.9389 16.7366H54.0255C55.2765 16.756 56.4633 17.318 57.5552 18.4114L67.5074 13.8438L67.4711 12.23L57.5272 7.71225C56.5499 8.83337 55.3128 9.38148 53.7574 9.38148C53.71 9.38148 53.6625 9.38148 53.615 9.38148C52.149 9.35103 51.0069 8.5178 50.1468 7.71502L40.3285 12.2078L40.3481 13.9103L50.2082 18.4252ZM35.6512 10.8431C34.4141 10.8431 33.4089 11.8397 33.4089 13.066C33.4089 14.2923 34.4141 15.2889 35.6512 15.2889C36.8882 15.2889 37.8935 14.2923 37.8935 13.066C37.8935 11.8397 36.8882 10.8431 35.6512 10.8431ZM72.2295 10.8486C70.9952 10.8486 69.9927 11.8424 69.9927 13.066C69.9927 14.2895 70.9952 15.2833 72.2295 15.2833C73.4637 15.2833 74.4662 14.2895 74.4662 13.066C74.4662 11.8424 73.4637 10.8486 72.2295 10.8486ZM53.8747 2.47202C52.6377 2.47202 51.6296 3.47134 51.6296 4.69766C51.6296 5.92398 52.6377 6.92331 53.8747 6.92331C55.1118 6.92331 56.1198 5.92398 56.1198 4.69766C56.1198 3.47134 55.1118 2.47202 53.8747 2.47202Z" fill="white"/>
<path d="M58.1416 42.0547C58.4571 44.8811 56.5974 47.1787 53.8691 47.1953C51.3029 47.2091 49.1666 44.9281 49.6581 42.1045L39.111 37.3072C37.7399 38.7882 35.9444 39.5135 34.0344 38.8298C32.4064 38.2484 31.1721 36.629 31.2335 34.7632C31.295 32.8975 32.4483 31.2338 34.6431 30.6774L34.6543 17.3041C32.8811 16.6176 31.5519 15.3138 31.376 13.5836C31.1777 11.6431 32.2556 9.98218 33.7607 9.27075C35.6707 8.36831 37.6757 8.84445 39.1054 10.5386L49.6749 5.71083C49.3872 3.82291 50.0295 2.18966 51.3587 1.26507C52.9085 0.18547 54.8018 0.221457 56.3656 1.254C57.7925 2.19519 58.2896 3.94471 58.1053 5.74681L68.6719 10.5663C70.1323 9.06867 71.9921 8.27143 73.9943 9.19601C75.5246 9.90191 76.7114 11.5462 76.4908 13.5864C76.3037 15.3304 74.9046 16.6813 73.0114 17.3567V30.5999C74.9326 31.2282 76.3148 32.5681 76.4963 34.3923C76.6862 36.3079 75.5246 38.0436 73.9776 38.7301C71.9391 39.6325 70.0821 38.8021 68.5965 37.3128L58.1332 42.0575L58.1416 42.0547ZM56.5918 4.69766C56.5918 3.21113 55.3743 2.00419 53.8747 2.00419C52.3752 2.00419 51.1577 3.21113 51.1577 4.69766C51.1577 6.18419 52.3752 7.39113 53.8747 7.39113C55.3743 7.39113 56.5918 6.18419 56.5918 4.69766ZM67.9822 14.1428L67.9347 11.931L57.3904 7.13923C56.3377 8.50949 55.0643 8.9441 53.6234 8.91642C52.3361 8.89151 51.2554 8.15239 50.2417 7.1586L39.851 11.9144L39.879 14.2148L50.3367 19.0038C51.3364 17.7332 52.5706 17.1878 54.0143 17.21C55.338 17.2294 56.4633 17.9187 57.4407 18.9817L67.9794 14.1456L67.9822 14.1428ZM38.3655 13.066C38.3655 11.5794 37.1507 10.3753 35.6512 10.3753C34.1516 10.3753 32.9369 11.5794 32.9369 13.066C32.9369 14.5525 34.1516 15.7567 35.6512 15.7567C37.1507 15.7567 38.3655 14.5525 38.3655 13.066ZM74.9381 13.066C74.9381 11.5822 73.7262 10.3808 72.2295 10.3808C70.7327 10.3808 69.5208 11.5822 69.5208 13.066C69.5208 14.5497 70.7327 15.7511 72.2295 15.7511C73.7262 15.7511 74.9381 14.5497 74.9381 13.066ZM57.5607 40.6208L68.0324 35.8484C67.5773 33.3819 68.9511 31.2725 71.4225 30.6441V17.3595C70.3027 16.8833 69.4873 16.3602 68.6607 15.5435L58.0606 20.4017C58.5493 22.8544 57.1977 25.0025 54.6706 25.6171L54.665 38.7384C55.9244 39.1066 56.7398 39.7267 57.5607 40.618V40.6208ZM50.2501 40.6512C51.0543 39.6298 51.9479 39.1287 53.0956 38.6554L53.0817 25.6143C50.5238 25.0136 49.2337 22.8378 49.6805 20.4128L39.1585 15.5878C38.2956 16.4709 37.5445 16.983 36.246 17.282L36.2292 30.6441C38.7508 31.2116 40.1442 33.3155 39.6891 35.8595L50.2501 40.6512ZM56.5862 21.4371C56.5862 19.9505 55.3715 18.7436 53.8691 18.7436C52.3668 18.7436 51.1521 19.9478 51.1521 21.4371C51.1521 22.9264 52.3668 24.1305 53.8691 24.1305C55.3715 24.1305 56.5862 22.9264 56.5862 21.4371ZM38.2286 34.8546C38.2286 33.3653 37.0111 32.1584 35.5088 32.1584C34.0064 32.1584 32.7889 33.3653 32.7889 34.8546C32.7889 36.3439 34.0064 37.5508 35.5088 37.5508C37.0111 37.5508 38.2286 36.3439 38.2286 34.8546ZM74.9381 34.8518C74.9381 33.3681 73.7262 32.1667 72.2295 32.1667C70.7327 32.1667 69.5208 33.3681 69.5208 34.8518C69.5208 36.3356 70.7327 37.537 72.2295 37.537C73.7262 37.537 74.9381 36.3356 74.9381 34.8518ZM56.589 42.9599C56.589 41.4734 55.3715 40.2665 53.8719 40.2665C52.3724 40.2665 51.1549 41.4734 51.1549 42.9599C51.1549 44.4465 52.3724 45.6534 53.8719 45.6534C55.3715 45.6534 56.589 44.4465 56.589 42.9599Z" fill="white"/>
</svg>
