<svg width="89" height="89" viewBox="0 0 89 89" fill="none" xmlns="http://www.w3.org/2000/svg">
<path d="M88.8407 25.9843C87.8686 23.3227 85.4478 21.5315 82.5923 21.269L80.6061 22.3511C80.6014 21.3519 80.7136 20.3803 80.8164 19.358L81.4286 13.4593L81.6109 11.6082L81.7605 10.0564C81.9708 7.84607 81.681 6.95735 80.2042 5.24898C79.2789 4.17607 77.8161 3.66494 76.3486 3.55442C74.5447 3.42088 72.7688 3.49456 70.9555 3.49456C69.4086 3.48996 70.4975 1.95196 67.4037 0.492249C66.6326 0.128472 65.9082 -0.0419046 65.0203 0.00874792L57.2811 0.441597L51.8459 0.791559L16.1223 3.31497C13.351 3.50838 11.0797 5.5621 10.6404 8.26511L2.35908 59.3551L1.72817 62.7165L1.03183 67.7864L0.125185 74.2607C-0.150547 76.2269 -0.0570782 78.1011 1.29821 79.5976C2.86381 81.3152 4.24714 81.3613 6.5745 81.4948C7.32692 81.5362 8.13542 81.458 8.83176 81.7066C9.74308 82.029 10.5796 82.3283 11.5564 82.4434L20.7677 83.5255L30.3108 84.6675L36.9003 85.4319L49.5139 86.9745L65.6512 88.8486C66.7541 88.973 67.8851 89.1157 68.8665 88.8486C72.236 87.9369 74.3064 85.1003 74.6195 81.7343L75.0354 77.2446L76.1897 65.7419L77.0543 57.4303L78.2507 44.9191C78.3208 44.1915 78.3816 43.7265 78.8536 43.1647L80.8398 40.7932L81.8072 39.7249L82.6017 38.8408C83.7467 37.5607 86.0226 35.2629 84.3916 33.4808L85.9478 31.5883L86.976 30.4417C88.0555 29.2352 89.4809 27.7433 88.8407 25.9843ZM61.7442 65.1801L61.618 68.8685L61.4825 71.1387L61.3516 73.9384C61.3189 74.6889 61.2628 75.5224 60.931 76.2039C59.8982 78.3129 58.4167 78.5431 56.2997 78.4234L33.6289 77.1479L30.4977 77.0098L27.8152 76.8808L25.2308 76.7519L22.3473 76.6414L12.3508 76.121C9.70102 75.9829 6.47169 76.3835 5.96696 73.4364C5.80339 72.4602 5.98098 71.5255 6.10716 70.5493L6.80817 65.1202L10.3553 38.2238L11.8929 26.3941L14.2109 9.78008C14.4913 7.77239 16.0242 6.92051 17.9449 6.83302L45.8499 5.55289L49.0979 5.42857L54.463 5.16609L57.7251 5.04176C59.3327 4.9773 60.9264 4.91744 62.5948 4.9773C64.9642 6.33571 64.394 7.36257 64.3146 10.13L64.1977 14.0855L64.0575 16.8622L63.9314 19.4271L63.8052 21.8216L63.5481 27.0618L63.4173 29.576L63.2911 32.2698L63.1556 35.8293L63.0855 38.5691C63.0761 39.0572 62.8658 39.5223 62.5293 39.9137L50.6682 53.6497L46.1443 58.8531C43.9478 61.3858 44.6161 60.695 43.8403 63.5868C43.2795 65.6866 42.7374 67.6436 42.3869 69.8355L43.2935 71.0051L42.3402 72.7319C42.0317 73.2937 42.1766 73.8048 42.7 74.141C43.0692 74.3804 43.4524 74.3942 43.803 74.0857L44.8311 73.1786C46.3172 71.8662 45.7845 74.0166 47.7006 73.1924L51.3832 71.6084C52.5563 71.1064 53.6826 70.7288 54.9023 70.342C55.5987 70.121 56.0847 69.2783 56.5567 68.758L58.2438 66.9161L61.7255 62.8455C61.8657 63.7618 61.7676 64.4157 61.7442 65.1801ZM69.9741 50.2929L59.1785 62.7764L56.0146 66.4694C55.365 67.2246 54.7247 67.9153 54.0004 68.5047C53.4255 68.979 52.7058 68.8777 52.0328 68.6521C49.2288 67.7173 46.7706 65.6037 46.1023 62.6889C45.8966 61.8048 46.8313 60.9897 47.322 60.4418L48.4997 59.1386L54.5752 52.167L59.7346 46.19L64.1977 41.0419L71.7173 32.4494C71.993 32.1362 72.2033 31.8968 72.5725 31.6481C73.1006 33.1033 73.8624 34.2775 75.0027 35.3228C76.7319 36.9068 78.0544 37.7126 80.4426 38.2836L69.9741 50.2929ZM82.0642 33.025C81.5408 33.6466 80.8865 33.8354 80.1762 33.3887C78.6293 32.9237 77.3534 31.6804 77.0496 30.0549C77.0824 29.553 77.6385 29.0557 77.9563 28.6919L79.6387 26.7809C79.9285 26.4494 80.1762 26.0672 80.4472 25.7126C80.5734 25.8277 80.7884 26.0211 80.8585 26.1408C81.7978 27.7295 83.2186 28.8576 85.1534 29.3365L82.0642 33.025ZM86.4198 27.7341C84.2888 27.1953 83.5784 26.652 82.4521 24.8101C82.139 24.3035 82.2044 23.8891 82.5876 23.5115C82.9475 23.1615 83.3681 23.2859 83.8728 23.5069C85.1393 24.0641 86.3217 24.8791 86.8825 26.1777C87.0975 26.675 87.1115 27.5361 86.4198 27.7341Z" fill="#31374B"/>
<path d="M31.4044 44.2422L24.5578 44.1777L16.5382 44.0856C16.3887 44.0856 16.1036 43.9889 15.9961 43.9153C15.8699 43.8278 15.8325 43.4364 15.8559 43.2476L16.9962 33.2644L18.258 22.8484C18.3655 21.9735 18.5057 21.2552 18.702 20.3572L22.0529 20.2375L28.5676 20.0994L33.5495 20.0211C34.7879 20.0027 34.3767 21.4348 34.2365 22.8807L33.657 28.784L32.6101 39.3151L32.4092 41.4379C32.3391 42.17 32.1381 43.2199 32.0259 43.8922C31.9652 44.0212 31.5633 44.2422 31.409 44.2422H31.4044Z" fill="#31374B"/>
<path d="M39.8165 61.5423C38.8678 61.5515 37.9238 61.5147 36.9657 61.4825L33.3579 61.3443L29.3901 61.2937C29.1892 61.2937 28.848 61.1555 28.6517 61.0266C28.6517 60.101 28.6798 59.1755 28.7686 58.2591L29.1611 54.1839L29.6285 48.8193C29.6846 48.2023 29.7874 47.6912 29.9089 47.0005C30.937 46.9314 31.8577 47.0143 32.8858 47.0281L38.4332 47.111L40.8821 47.2077C40.8774 48.0043 40.868 48.7963 40.812 49.5837L40.3119 56.3896L40.167 58.0703L39.8119 61.5423H39.8165Z" fill="#31374B"/>
<path d="M21.6696 60.999L19.4685 60.8746C17.2019 60.7457 16.0896 60.9115 13.9678 60.5753C13.9258 59.8155 13.9585 59.1386 14.0473 58.3788L14.4586 54.8194L15.1736 48.8285C15.2624 48.0918 15.3979 47.4149 15.5802 46.6919L20.1788 46.7656L25.6701 46.8393C25.829 46.8393 26.1608 46.9774 26.3244 47.0741L25.6047 53.4932L25.0158 58.6275C24.9223 59.4564 24.8055 60.2069 24.6466 61.0358C23.5764 61.0358 22.6698 61.0542 21.6696 60.9944V60.999Z" fill="#31374B"/>
<path d="M40.6531 71.8847L39.8165 70.9775C39.8633 68.8225 38.1621 67.2062 35.9796 67.3259C35.6899 67.3397 35.316 67.2753 35.059 67.1463C34.4094 65.3367 32.6942 64.0013 30.708 64.0565C27.3338 64.1532 23.4128 66.6168 21.1229 68.9008L20.291 69.725C19.4731 70.5401 18.2534 71.5623 18.7488 72.4464C18.9123 72.7365 19.174 72.9944 19.4077 72.999C19.7582 73.0128 20.0573 72.8793 20.2676 72.649L21.3238 71.4978C23.7914 68.8087 26.0486 66.9529 29.6892 66.1241C30.6847 65.8984 31.4838 65.8846 32.3531 66.5753C32.6802 66.8378 33.3766 67.4318 33.1102 67.9798L30.4463 69.9552C29.6612 70.5354 28.0161 72.207 28.0582 73.3352C28.1003 74.4633 28.9088 75.2093 30.0771 75.3198C30.6333 75.3705 31.381 75.2738 31.839 74.9883C33.5448 73.9246 34.9328 72.4234 35.6665 70.5539C35.7834 70.2638 35.6899 69.5961 35.8955 69.3658C36.6573 69.0665 37.3303 69.6513 37.6294 70.2407C37.9939 70.9591 37.849 71.4886 37.377 72.0688C37.1059 72.3958 36.8629 72.7227 36.5451 73.0543C36.0077 73.6114 35.2693 74.3989 35.4095 75.2876C35.5357 76.098 36.919 76.4434 37.4751 75.8678L39.8259 73.4457C40.2512 73.0082 41.0503 72.6859 40.6531 71.8847ZM30.1098 73.2154C30.3715 72.451 32.6148 70.4526 33.5962 70.2592C33.7037 70.7933 30.6893 74.0765 30.1098 73.2154Z" fill="#31374B"/>
<path d="M29.8855 15.1723L26.759 15.1999C26.1748 15.2045 25.8243 14.7486 25.7028 14.2697C25.5112 13.5099 25.7168 12.9067 26.1047 12.2759C26.4365 11.7325 26.8011 11.4286 27.4834 11.4056L38.4332 11.0464L41.6625 10.9036L44.6348 10.7885L48.897 10.6458C49.5793 10.6227 50.2897 10.8115 50.4485 11.5391C50.6682 12.5521 50.3644 13.5514 49.8457 14.4355C48.9531 14.546 48.1399 14.6565 47.2753 14.6842L38.9146 14.942L35.045 15.0756L29.8949 15.1723H29.8855Z" fill="#31374B"/>
<path d="M42.9898 22.6919L38.5594 22.7563C38.2135 22.7609 37.8537 22.6734 37.5125 22.5952C37.4518 21.9505 37.4237 21.4992 37.5452 20.873L46.5089 20.5875L51.5047 20.4539L57.5895 20.4079L57.6877 22.3005L55.2996 22.457L42.9944 22.6919H42.9898Z" fill="#31374B"/>
<path d="M49.4017 28.1669L37.1153 28.2222C36.919 27.5453 36.8769 27.0296 36.9003 26.2928L44.8919 26.1777L54.3415 26.1224C54.3462 26.7671 54.2948 27.3381 54.1966 28.0288L49.4017 28.1715V28.1669Z" fill="#31374B"/>
<path d="M47.9342 33.7755L36.662 33.7848C36.5685 33.7848 36.3021 33.7111 36.2647 33.6282C36.1572 33.4118 36.2601 32.2836 36.461 31.8461C39.5688 31.7448 42.5551 31.5975 45.663 31.7587L47.9249 31.8738V33.7755H47.9342Z" fill="#31374B"/>
</svg>
