<svg width="99" height="93" viewBox="0 0 99 93" fill="none" xmlns="http://www.w3.org/2000/svg">
<path d="M82.7088 7.92365L79.8361 5.13343C78.3315 3.67336 76.4713 3.01535 74.4092 2.89673L64.2808 2.31779L61.9143 2.18788L59.3346 2.08621L48.094 1.52421L21.4716 0.131927L17.9703 0.0387315C16.9236 0.0104904 15.8257 -0.0714089 14.7904 0.146048C12.9473 0.535775 11.4768 1.67672 10.2026 3.01817C8.96249 4.32009 8.30546 6.00326 8.0836 7.82199L6.91461 17.3025L6.16656 23.2219L5.154 31.0701L4.32632 37.8592L3.49863 44.3717L2.86152 49.328L2.36661 53.0982L1.6527 58.9158L0.108259 70.8166C-0.119283 72.5732 -0.0282661 74.1519 0.770975 75.7532C1.58444 77.3771 2.8217 78.727 4.32347 79.8086C5.70295 81.9239 7.83615 82.9773 10.3078 83.4037L20.7492 85.1999L29.5863 86.6882L42.9174 88.9559L49.2061 90.0488L58.2737 91.5823L65.2592 92.7995C68.3509 93.3389 71.1981 92.8475 73.5929 90.6165C74.7733 89.5151 75.8029 87.9223 76.0134 86.3013L77.4811 74.9737L79.5801 59.0542L80.7463 49.4127L80.9539 47.8227L81.1189 46.3062L81.7048 42.1547L82.3789 36.7324L84.6088 19.5929L85.2033 14.7213C85.5446 11.9339 84.7169 9.87512 82.7088 7.92365ZM29.0061 7.97731C29.6176 7.09054 30.6558 6.74035 31.6342 7.31082C32.4647 7.79375 32.8487 9.03918 32.1746 9.87229C31.3725 10.8636 30.141 11.0415 29.282 10.3157C28.497 9.64919 28.4515 8.78218 29.0061 7.97731ZM22.8482 7.00299C23.8324 6.2772 25.0696 6.68387 25.6811 7.66666C25.9371 8.96858 25.3171 10.0672 24.0741 10.2874C23.1526 10.4541 22.1542 9.6746 22.0262 8.73982C21.9466 8.15523 22.3988 7.33624 22.8482 7.00299ZM15.9964 6.9804C16.5425 6.37039 17.2052 6.07951 17.9845 6.30261C18.7383 6.51725 19.2019 7.21198 19.1933 8.09593C19.1877 8.54496 18.9686 8.87538 18.6359 9.22557C18.0187 9.87794 17.2535 10.2084 16.4827 9.69155C16.0533 9.40067 15.6608 8.92904 15.5783 8.53366C15.4389 7.88129 15.6096 7.41531 15.9964 6.9804ZM78.8833 22.417L76.8866 37.8508L75.6038 48.0797L75.4616 49.1614L74.7932 54.1996L74.0765 59.7377L73.5076 64.4652L71.3829 80.7462C71.2151 82.0199 71.1042 83.3557 70.6036 84.5503C69.5313 87.1118 66.3628 88.3459 63.564 87.9251L60.6287 87.4846L9.73044 78.7976C8.36234 78.5632 7.06251 78.422 5.89351 77.9023C2.94116 76.592 1.83758 73.8695 2.25284 70.8195L5.08858 50.0566L5.79681 43.9509L6.53063 38.136L7.26161 32.7674L7.89588 28.0229L8.56998 22.3492L9.40619 15.3906C10.6122 15.3821 11.6532 15.4273 12.7966 15.5177L18.2434 15.9526L26.3382 16.5316L28.5709 16.6841L30.798 16.8309L32.4676 16.9552L34.2851 17.0964L36.2448 17.2291L38.4775 17.3703L40.8411 17.5172L42.6529 17.6499L44.4704 17.7883L46.2879 17.9182L48.8022 18.0679L51.1402 18.2317L64.4827 19.1947L79.0653 20.1662C79.0369 20.9372 78.9828 21.6517 78.8833 22.417Z" fill="#31374B"/>
<path d="M61.9001 46.1452C59.9632 44.5609 57.318 44.1118 54.8065 44.5383C51.9992 45.0156 50.5771 47.2664 49.5389 47.1223L45.7191 46.5858L41.3957 46.0548L31.3526 44.9393L18.2434 43.3832C17.2507 43.2674 16.4344 43.2759 15.5555 43.8492C14.7819 44.3547 13.9371 45.1229 13.5304 46.0181C12.5008 48.2746 13.0639 51.398 15.4901 52.5898C16.7501 53.2083 18.1182 53.2083 19.5005 53.3749L28.5339 54.4735L33.8982 55.1541L49.3284 57.0773C49.8518 57.1423 50.1675 57.4699 50.4775 57.8144C51.0464 58.4527 51.766 58.9074 52.497 59.3988C53.8679 60.3222 55.5887 60.6188 57.2384 60.5002C59.5308 60.3364 61.5275 59.3649 63.1175 57.6958C64.3519 56.4052 65.0914 55.0383 65.1796 53.2789C65.3161 50.4943 64.1044 47.9498 61.9001 46.1452ZM60.7027 50.8022L55.8276 55.6455C55.6598 55.8093 55.4408 55.894 55.2246 55.894C55.0084 55.894 54.7866 55.8093 54.6188 55.6455L52.3718 53.4116C52.039 53.0812 52.039 52.5446 52.3718 52.2142C52.7046 51.8838 53.245 51.8838 53.5778 52.2142L55.2246 53.8465L59.4967 49.6047C59.8295 49.2743 60.3699 49.2743 60.7027 49.6047C61.0355 49.9352 61.0355 50.4717 60.7027 50.8022Z" fill="#31374B"/>
<path d="M67.1336 36.097C66.9004 34.0806 65.4668 32.5782 63.4503 32.2054C61.7039 31.8834 59.9831 31.7535 58.1883 31.5925L47.9603 30.6775L42.3799 30.1692L35.9945 29.5309L21.446 28.1612C19.9129 28.0172 18.2633 27.9099 16.989 28.8927C15.4645 30.0675 14.7989 32.228 15.0748 34.0749C15.382 36.1478 16.9464 37.5684 19.0085 37.7802L33.2497 39.26L37.2232 39.6497L42.5278 40.1807L52.3405 41.2228L58.8738 41.9373L60.7965 42.1095C62.5572 42.2677 64.1699 42.1943 65.5266 40.9065C66.8378 39.6639 67.3327 37.8338 67.1336 36.097ZM63.8428 39.534C63.5782 39.7571 63.1857 40.0395 62.6709 39.9886L55.2104 39.2628L53.3844 39.1414L45.1559 38.2857L33.5968 37.0487L29.2137 36.5884L21.8755 35.8513C20.8004 35.744 19.7338 35.679 18.7269 35.4813C17.6005 35.2611 17.154 34.3517 17.191 33.2785C17.2279 32.3155 17.4299 31.2621 18.3202 30.7227C19.182 30.2031 20.2144 30.3669 21.1815 30.4601L28.6989 31.1887L34.9819 31.7366L40.7899 32.2167L48.5747 32.9199L59.1099 33.9733L63.2796 34.3658C64.2922 34.4618 64.7074 35.1312 64.8895 36.0066C65.1682 37.3707 64.9435 38.602 63.8428 39.534Z" fill="#31374B"/>
<path d="M61.7977 66.0354C60.6344 64.6375 58.8169 64.5584 56.9568 64.2929L47.9404 62.9967L34.4159 61.1836L29.1767 60.4126L24.0542 59.6783L15.7461 58.6645C14.3126 58.4894 12.9928 59.105 12.2163 60.2545C11.2891 61.6298 10.8937 63.2734 11.2777 64.886C11.7157 66.7386 13.1635 68.0264 15.035 68.3032L18.0898 68.755L26.5629 70.0428L31.5375 70.7686L45.9949 72.9206L49.0952 73.4233L57.7759 74.6659C60.4922 75.0556 62.5458 73.0618 62.9127 70.5879C63.1601 68.9019 62.9269 67.3966 61.7977 66.0354ZM58.413 72.5055C57.0222 72.6071 55.5887 72.2061 54.2263 71.9887L52.2552 71.6752L32.6525 68.7466L20.0637 66.8459L15.5441 66.202C14.8444 66.1004 14.2215 65.8293 13.8347 65.3972C13.2972 64.7956 13.2858 64.1433 13.3256 63.3186C13.374 62.2568 13.9769 60.9181 15.2341 60.8927C16.3576 60.8701 17.538 61.065 18.6728 61.2288L24.7596 62.1071L28.1528 62.5279L33.5342 63.2565L40.2068 64.1969L45.8698 64.9651L55.0483 66.2246L58.8454 66.8572C60.0684 67.0606 60.7368 68.0773 60.8477 69.1504C61.007 70.6839 60.0969 72.3869 58.413 72.5055Z" fill="#31374B"/>
<path d="M84.0599 50.6751C83.7157 50.6751 83.3915 50.4661 83.2606 50.1272C83.0928 49.6895 83.3147 49.2009 83.7555 49.0343L97.8432 43.7278C98.2841 43.5611 98.7761 43.7814 98.944 44.2192C99.1118 44.6569 98.8899 45.1455 98.4491 45.3121L84.3614 50.6186C84.2618 50.6553 84.1594 50.6751 84.0599 50.6751Z" fill="#31374B"/>
<path d="M93.9352 57.436H85.6072C85.135 57.436 84.7539 57.0576 84.7539 56.5888C84.7539 56.12 85.135 55.7415 85.6072 55.7415H93.9352C94.4073 55.7415 94.7885 56.12 94.7885 56.5888C94.7885 57.0576 94.4073 57.436 93.9352 57.436Z" fill="#31374B"/>
<path d="M89.4043 64.5132C89.2222 64.5132 89.0373 64.4539 88.8809 64.3353L84.5235 60.9661C84.1509 60.6781 84.0855 60.1471 84.3756 59.7772C84.6657 59.4072 85.2004 59.3423 85.573 59.6303L89.9305 62.9995C90.303 63.2876 90.3685 63.8185 90.0784 64.1885C89.9105 64.4031 89.6574 64.5161 89.4043 64.5161V64.5132Z" fill="#31374B"/>
</svg>
