<svg width="75" height="75" viewBox="0 0 75 75" fill="none" xmlns="http://www.w3.org/2000/svg">
<path d="M53.0611 43.8943C47.2642 43.8943 41.7938 41.6646 37.6536 37.6156C29.8928 30.0261 28.8917 17.7133 35.3224 8.97357C39.4599 3.35557 46.0782 0 53.0339 0C56.5566 0 60.0902 0.870164 63.2647 2.51804L65.5932 0.383416C65.7918 0.201225 66.2624 0.0217541 66.5426 0.0217541C66.5861 0.0217541 66.6296 0.0244734 66.6677 0.0326312C67.0241 0.11149 67.5056 0.609115 67.6171 0.940865L69.2601 5.76484L73.9879 7.3121C74.2599 7.40183 74.6707 7.75806 74.8148 7.95384C75.0678 8.29919 74.8693 9.11769 74.6108 9.39777L72.451 11.7146C77.4725 21.2837 74.8584 32.9384 66.1917 39.4891C62.3888 42.3661 57.8487 43.8862 53.0638 43.8862L53.0611 43.8943ZM53.0148 2.48813C46.7338 2.48813 40.8037 5.56089 37.1504 10.7112C31.6201 18.5073 32.5423 29.0444 39.3402 35.7665C43.0125 39.3967 47.8844 41.3981 53.0583 41.3981C57.1768 41.3981 61.1075 40.12 64.4262 37.7053C72.1028 32.1118 74.6544 22.0097 70.5713 13.5555L66.5127 17.5964C68.4767 23.8235 66.0394 30.5346 60.5445 33.9663C58.2703 35.3858 55.6698 36.1363 53.0257 36.1363C49.2636 36.1363 45.7055 34.6624 43.0125 31.9867C38.3854 27.3911 37.5122 20.0518 40.9315 14.5317C43.5511 10.3033 48.083 7.77981 53.0556 7.77981C54.5463 7.77981 56.0397 8.00823 57.4978 8.45691L61.4258 4.40793C58.7545 3.13531 55.9282 2.49084 53.0148 2.49084V2.48813ZM53.0039 10.2407C49.1303 10.2407 45.3791 12.2884 43.2165 15.5841C40.246 20.109 40.8608 26.2246 44.6773 30.124C46.897 32.3919 49.8539 33.64 53.0067 33.64C55.2753 33.64 57.4896 32.9819 59.4128 31.7365C63.9801 28.778 65.8761 22.9723 63.9584 17.8819L60.1582 17.27C60.1283 17.2646 60.0983 17.2619 60.0657 17.2619C59.6522 17.2619 59.0157 17.6018 58.6784 18.0042C58.5424 18.1647 58.4716 18.3224 58.4744 18.442C60.199 21.4767 59.5733 24.9955 56.9456 27.0213C55.8357 27.8752 54.443 28.3456 53.0203 28.3456C51.2711 28.3456 49.5846 27.6386 48.3986 26.404C46.0728 23.9866 45.983 20.1824 48.1891 17.7432C49.4948 16.302 51.2031 15.508 53.0012 15.508C54.2416 15.508 55.4413 15.8805 56.5702 16.6174C57.087 16.1415 57.5114 15.682 57.7671 15.323L57.1278 11.0511C55.8167 10.5127 54.4266 10.238 52.9985 10.238L53.0039 10.2407ZM53.0175 18.0206C51.8642 18.0206 50.7298 18.5644 49.9845 19.4726C48.725 21.009 48.8066 23.1844 50.1776 24.6447C50.9094 25.4224 51.943 25.8711 53.0203 25.8711C53.8826 25.8711 54.7014 25.5937 55.3814 25.0662C56.7769 23.9866 57.5195 21.9689 56.4804 20.3319L53.7302 22.9533C53.6078 23.0702 53.4147 23.1273 53.1563 23.1273C52.7836 23.1273 52.1797 22.9914 52.0002 22.6922C51.7962 22.3496 51.8234 21.4468 52.1171 21.145L54.7476 18.4638C54.2117 18.1674 53.6323 18.0178 53.0203 18.0178L53.0175 18.0206ZM65.0601 15.4889L71.3873 9.15032L68.5773 8.16323L66.7602 9.98513C66.5725 10.1728 66.2597 10.2136 66.0312 10.2136C65.6585 10.2136 65.1498 10.1075 64.954 9.80566C64.7336 9.46847 64.6847 8.59015 65.0437 8.22305L66.8228 6.4093L65.8381 3.61118L59.4863 9.92259L60.2316 14.7928L65.0601 15.4944V15.4889Z" fill="white"/>
<path d="M69.0452 5.9851L73.9036 7.57587C74.1049 7.64113 74.4775 7.95928 74.5972 8.12244C74.7468 8.32638 74.6163 9.00348 74.4123 9.22102L72.1191 11.6792C77.2848 21.319 74.5102 32.865 66.0257 39.2825C57.5413 45.6999 45.477 44.8869 37.844 37.4225C30.1566 29.9065 29.1828 17.7758 35.5427 9.13672C41.8781 0.527537 53.5779 -2.31137 63.3082 2.84979L65.7782 0.587361C65.9333 0.445959 66.4147 0.261049 66.6106 0.304557C66.8554 0.358943 67.2743 0.780429 67.3614 1.03604L69.0479 5.98782L69.0452 5.9851ZM57.5767 8.76418L61.8828 4.32635C52.8979 -0.157717 42.4467 2.77365 36.93 10.5535C31.3127 18.4747 32.2974 29.1831 39.1497 35.9568C45.9939 42.7223 56.7932 43.5979 64.5867 37.9201C72.2687 32.3239 75.1168 21.9118 70.6474 13.0905L66.2026 17.5175C68.2971 23.9023 65.6884 30.4313 60.4003 33.7325C54.8047 37.2267 47.7539 36.3103 43.2056 31.7909C38.6383 27.2552 37.8005 20.1008 41.1654 14.6731C44.5712 9.17751 51.1895 6.71658 57.5767 8.76418ZM68.5093 7.85051L66.5698 9.79479C66.3141 10.0504 65.3756 9.95522 65.1825 9.65882C65.0165 9.40321 64.9948 8.66629 65.2396 8.4134L67.1356 6.47728L65.9523 3.11356L59.1952 9.8247L59.9922 15.0294L65.1553 15.7772L71.8852 9.03611L68.5066 7.84779L68.5093 7.85051ZM56.5974 16.9628C57.1822 16.4379 57.7426 15.856 58.0554 15.391L57.3781 10.8607C52.1335 8.62006 46.0564 10.7601 42.988 15.4345C39.8869 20.1606 40.6105 26.3578 44.4841 30.3143C48.3578 34.2709 54.7775 35.0622 59.5625 31.9649C64.2712 28.9166 66.2406 22.9479 64.1569 17.6371L60.2044 17.0008C59.4672 16.8812 58.0881 17.8166 58.2132 18.5291C59.8943 21.4414 59.3013 24.8649 56.7824 26.8065C54.3233 28.6991 50.7461 28.4489 48.5971 26.2164C46.4482 23.9839 46.2387 20.3047 48.3931 17.9281C50.4415 15.6657 53.684 14.9505 56.5974 16.9655V16.9628ZM52.3103 21.3381L55.1801 18.4149C53.2814 17.145 50.9801 17.8356 49.7777 19.3013C48.3578 21.0362 48.589 23.3476 49.9818 24.8323C51.3745 26.317 53.8418 26.6026 55.5501 25.281C57.0761 24.1035 57.933 21.7487 56.5239 19.9159L53.5425 22.7575C53.3113 22.9778 52.381 22.801 52.2314 22.5563C52.0818 22.3116 52.1063 21.5474 52.3103 21.3408V21.3381Z" fill="white"/>
<path d="M36.2472 75C33.3638 75 30.3171 74.2848 27.4418 72.9334C26.9168 72.6859 26.4 72.4412 25.8886 72.1992C23.2662 70.9565 20.7881 69.7844 18.0434 68.7076C17.5292 68.5064 16.9036 68.4112 16.0712 68.4112C15.6142 68.4112 15.1327 68.4384 14.6676 68.4656C14.2024 68.4928 13.7209 68.52 13.2585 68.52C13.1415 68.52 13.03 68.52 12.9239 68.5146C12.6927 70.3691 11.5447 72.1992 9.40932 72.2998C8.40011 72.346 7.40994 72.3678 6.38441 72.3678C5.35888 72.3678 4.42584 72.346 3.38942 72.3052C1.52062 72.2318 0 70.4833 0 68.4112V40.275C0 38.3634 1.38732 36.3049 3.45471 36.2886L9.1509 36.2423C11.1938 36.2423 12.7688 37.9065 12.9021 40.1526L24.931 40.1146C27.1344 40.1146 28.8237 40.8325 30.6816 41.912L46.3747 51.027C48.1374 52.0521 49.0759 53.991 49.1684 56.7945L66.1019 47.0351C67.0866 46.4695 68.1775 46.1676 69.2574 46.1676C71.3248 46.1676 73.1745 47.2445 74.211 49.0501C75.0406 50.4967 75.2229 52.1174 74.7251 53.6157C74.2382 55.0787 73.1229 56.3703 71.5859 57.2486L44.1142 72.966C41.7585 74.3147 39.1144 74.9973 36.2527 74.9973L36.2472 75ZM16.3378 66.002C17.4476 66.002 18.6364 66.0917 20.9785 67.1685L29.6615 71.1577C31.5902 72.0442 33.6467 72.4928 35.7739 72.4928C38.6275 72.4928 41.5626 71.6689 44.2692 70.108L70.4625 54.9971C71.469 54.4152 72.1599 53.5858 72.402 52.664C72.6115 51.8672 72.4782 51.0324 72.013 50.252C71.4146 49.2377 70.4162 48.6558 69.2792 48.6558C68.6154 48.6558 67.9245 48.8543 67.2798 49.2268L47.2751 60.8C46.0211 62.0563 44.4787 62.7198 42.8139 62.7198C41.6061 62.7198 40.3521 62.3636 39.1878 61.6865L29.0005 55.7748C28.7367 55.6225 28.636 55.2445 28.6006 55.0352C28.5435 54.7034 28.5517 54.2275 28.7611 53.9828C28.9869 53.7163 29.4684 53.6212 29.8111 53.6212C29.9988 53.6212 30.2654 53.6483 30.4803 53.7707L40.7248 59.6851C41.3531 60.0495 42.0278 60.2317 42.7241 60.2317C44.106 60.2317 45.3682 59.5084 46.1054 58.2956C46.6359 57.4227 46.7963 56.2887 46.5325 55.2581C46.2849 54.2901 45.6892 53.4906 44.8541 53.0066L29.0277 43.8372C28.0158 43.2553 26.8461 42.6353 25.7607 42.6326L12.8668 42.6136L12.8559 65.866C13.8216 65.9965 14.5451 66.0128 15.0783 66.0128C15.3123 66.0128 15.5326 66.0101 15.7475 66.0047C15.9488 66.002 16.1446 65.9992 16.3405 65.9992L16.3378 66.002ZM3.93347 38.7332C3.54176 38.7332 3.18268 38.8827 2.91882 39.152C2.65224 39.4266 2.50534 39.8073 2.50534 40.2206L2.5135 68.4765C2.5135 69.3412 3.24525 69.8796 3.91987 69.8796H8.91968C9.50725 69.8796 10.3587 69.3983 10.3587 68.6369L10.375 40.0439C10.375 39.2308 9.62694 38.7441 8.90064 38.7413L3.93347 38.7305V38.4585L3.93075 38.7305L3.93347 38.7332Z" fill="white"/>
<path d="M71.4445 57.0148L43.9727 72.7321C38.8233 75.6771 32.7 75.1033 27.5561 72.6859C24.3489 71.1767 21.4355 69.7464 18.1413 68.4547C16.5554 67.832 14.4472 68.346 12.6791 68.2318C12.5267 70.1815 11.4033 71.9354 9.39844 72.0278C7.39362 72.1203 5.44049 72.1176 3.40302 72.0333C1.60494 71.9599 0.272024 70.2195 0.272024 68.4085V40.2696C0.272024 38.4368 1.59134 36.5686 3.45471 36.5551L9.12098 36.5115C11.2346 36.4952 12.6219 38.3117 12.6383 40.4218L24.8984 40.3811C27.0583 40.3729 28.7149 41.0799 30.5429 42.1404L46.236 51.2554C48.268 52.4356 48.9018 54.804 48.9018 57.2568L66.2352 47.2662C69.0479 45.6456 72.4102 46.4586 73.9716 49.1806C75.6228 52.0603 74.4694 55.2772 71.4472 57.0093L71.4445 57.0148ZM8.91968 70.1543C9.64598 70.1543 10.6307 69.5588 10.6307 68.6396L10.647 40.0466C10.647 39.0649 9.74663 38.4749 8.90336 38.4721L3.93619 38.4613C2.97595 38.4613 2.23332 39.2118 2.23332 40.2206L2.24148 68.4765C2.24148 69.4609 3.05755 70.1516 3.91987 70.1516H8.91968V70.1543ZM47.1065 60.5797C44.8595 62.8503 41.8809 62.9319 39.3238 61.4499L29.1365 55.5382C28.8319 55.3615 28.7394 54.4233 28.9679 54.1568C29.1964 53.8904 29.9852 53.7979 30.3443 54.0046L40.5888 59.9162C42.6915 61.129 45.1642 60.3622 46.3366 58.4342C47.4247 56.645 47.0357 53.9556 44.9901 52.77L29.1637 43.6007C28.16 43.0242 26.9358 42.3607 25.7607 42.3607L12.5947 42.3416L12.5838 66.1026C16.4085 66.6682 16.8356 65.5614 20.867 67.4133L29.55 71.4024C34.4328 73.6458 39.8135 72.9932 44.4053 70.3419L70.5985 55.231C72.5516 54.1052 73.4003 52.063 72.2469 50.1106C71.1779 48.2996 69.0507 47.8862 67.1438 48.9875L47.1092 60.577L47.1065 60.5797Z" fill="white"/>
</svg>
