<?xml version="1.0" encoding="UTF-8"?>
<svg id="Layer_1" xmlns="http://www.w3.org/2000/svg" version="1.1" viewBox="0 0 419.23 128.17">
  <!-- Generator: Adobe Illustrator 30.3.0, SVG Export Plug-In . SVG Version: 2.1.1 Build 22)  -->
  <defs>
    <style>
      .st0 {
        fill: #d4af37;
      }

      .st1 {
        fill: #022c22;
      }
    </style>
  </defs>
  <path class="st1" d="M93.65,31.93c-4.02,0-7.55,2.7-8.59,6.59l-5.24,19.6c-4.42,0-8.57-1.49-11.9-4.04-3.33-2.56-5.83-6.18-6.98-10.45L50.96,6.3c-.11-.4-.47-.67-.88-.67h-23.88c-.41,0-.78.27-.88.67L1.56,95.09c-.15.58.28,1.15.88,1.15h4.69c4.02,0,7.55-2.71,8.59-6.6l5.24-19.59c4.42,0,8.57,1.49,11.9,4.04,3.33,2.56,5.83,6.18,6.98,10.45l10.17,38.01h24.58c.41,0,.78-.28.88-.68l24.06-89.94h-5.88ZM75.81,73.18l-3.49,12.98-2.71,10.08-3.08,11.48c-.42,1.55-1.83,2.64-3.44,2.64-1.97,0-3.56-1.6-3.56-3.56v-.06l.41-25.18c.04-2.2-.99-4.28-2.75-5.59,0,0-.01-.01-.02-.02l-22.76-16.76c-.07-.05-.15-.11-.22-.16-1.13-.76-2.46-1.17-3.82-1.17h-3.19c-1.5,0-2.59-1.43-2.21-2.88l3.49-12.98,2.71-10.08,3.08-11.49c.42-1.55,1.83-2.64,3.44-2.64,1.97,0,3.56,1.6,3.56,3.56v.06l-.41,24.98v.11c0,2.16,1.02,4.19,2.76,5.48,0,0,.01,0,.02.01l23.03,16.96c1.17.86,2.59,1.33,4.04,1.33h2.91c1.5,0,2.59,1.42,2.21,2.88Z"/>
  <g>
    <path class="st1" d="M168.44,82.51h-29.18c-.57,0-1.08.36-1.27.89l-6.4,17.95c-.19.54-.7.89-1.27.89h-7.68c-.93,0-1.58-.93-1.26-1.81l27.15-74.45c.19-.53.7-.88,1.26-.88h8.44c.57,0,1.07.35,1.26.88l27.15,74.45c.32.88-.33,1.81-1.26,1.81h-8.02c-.57,0-1.08-.36-1.27-.89l-6.4-17.95c-.19-.54-.7-.89-1.27-.89ZM143.49,73.21h20.71c.93,0,1.58-.91,1.27-1.79l-10.36-29.63c-.42-1.2-2.12-1.2-2.54,0l-10.36,29.63c-.31.87.34,1.79,1.27,1.79Z"/>
    <path class="st1" d="M248.05,26.95l-25.7,74.36c-.19.56-.72.93-1.31.93h-8.69c-.59,0-1.12-.38-1.31-.93l-25.7-74.36c-.31-.9.36-1.84,1.31-1.84h7.84c.59,0,1.12.38,1.31.94l20.64,60.28c.16.45.8.45.95,0l20.53-60.28c.19-.56.72-.94,1.31-.94h7.5c.95,0,1.62.94,1.31,1.84Z"/>
    <path class="st1" d="M311.76,94.49v6.22c0,.85-.69,1.54-1.54,1.54h-48.53c-.85,0-1.54-.69-1.54-1.54V26.65c0-.85.69-1.54,1.54-1.54h47.39c.85,0,1.54.69,1.54,1.54v6.22c0,.85-.69,1.54-1.54,1.54h-37.18c-.85,0-1.54.69-1.54,1.54v20.62c0,.85.69,1.54,1.54,1.54h31.51c.85,0,1.54.69,1.54,1.54v6.22c0,.85-.69,1.54-1.54,1.54h-31.51c-.85,0-1.54.69-1.54,1.54v22.44c0,.85.69,1.54,1.54,1.54h38.32c.85,0,1.54.69,1.54,1.54Z"/>
    <path class="st1" d="M383.79,26.51v74.33c0,.77-.63,1.4-1.4,1.4h-7.79c-.49,0-.94-.26-1.2-.68l-36.68-60.55c-.16-.26-.57-.15-.57.16v59.67c0,.77-.63,1.4-1.4,1.4h-7.07c-.77,0-1.4-.63-1.4-1.4V26.51c0-.77.63-1.4,1.4-1.4h9.95c.49,0,.95.26,1.2.68l34.53,57.03c.16.26.57.15.57-.16V26.51c0-.77.63-1.4,1.4-1.4h7.07c.77,0,1.4.63,1.4,1.4Z"/>
  </g>
  <path class="st0" d="M410.34,87.53h0c4.06,0,7.36,3.3,7.36,7.36h0c0,4.06-3.3,7.36-7.36,7.36h0c-4.06,0-7.36-3.3-7.36-7.36h0c0-4.06,3.3-7.36,7.36-7.36Z"/>
</svg>