<?xml version="1.0" encoding="UTF-8"?>
<svg id="Layer_1" xmlns="http://www.w3.org/2000/svg" version="1.1" viewBox="0 0 24 24">
  <!-- Generator: Adobe Illustrator 30.1.0, SVG Export Plug-In . SVG Version: 2.1.1 Build 136)  -->
  <defs>
    <style>
      .st0 {
        fill: #2ca01c;
      }

      .st1 {
        fill: #fff;
      }
    </style>
  </defs>
  <path class="st0" d="M23.88,12c0,6.56-5.32,11.88-11.88,11.88S.12,18.56.12,12,5.44.12,12,.12s11.88,5.32,11.88,11.88ZM16.71,8.87c.88-.1,1.76.21,2.39.8.85.8,1.21,1.97.91,3.15-.25.99-1.04,1.89-2.11,2.22-.1.03-.29.02-.4.04-.47.08-.89.04-1.35,0-.53-.04-1.06-.01-1.65-.03V5.55c0-1.03-.8-1.83-1.81-1.85v13.29s3.53,0,3.53,0c2.74,0,4.9-2.41,4.79-5.1s-2.19-4.67-4.8-4.79c-.24-.01-.47-.04-.73-.03v1.9c.42.03.78-.03,1.22-.08ZM6.32,8.95c.56-.11,1.06-.02,1.56-.02l1.63.02v9.49c0,1.02.77,1.85,1.81,1.87V7.05s-3.47,0-3.47,0c-2.67,0-4.85,2.18-4.87,4.83s1.92,4.81,4.53,5.01c.35.03.65.03,1.02.03v-1.82c-.22,0-.49-.05-.69,0-1.7.43-3.37-.54-3.84-2.23s.53-3.59,2.33-3.93Z"/>
  <path class="st1" d="M6.32,8.95c-1.79.34-2.8,2.22-2.33,3.93s2.13,2.66,3.84,2.23c.2-.05.47,0,.7,0v1.82c-.37,0-.67,0-1.02-.03-2.61-.2-4.55-2.39-4.53-5.01s2.2-4.82,4.87-4.83h3.47s0,13.26,0,13.26c-1.04-.02-1.81-.84-1.81-1.87v-9.49s-1.62-.02-1.62-.02c-.5,0-1-.09-1.56.02Z"/>
  <path class="st1" d="M16.71,8.87c-.44.05-.8.11-1.22.08v-1.9c.26,0,.49.02.73.03,2.61.12,4.69,2.15,4.8,4.79s-2.05,5.1-4.79,5.1h-3.53s0-13.28,0-13.28c1.01.02,1.81.82,1.81,1.85v9.52c.59.01,1.12-.01,1.65.03.46.03.88.07,1.35,0,.11-.02.29,0,.4-.04,1.07-.33,1.86-1.24,2.11-2.22.3-1.18-.06-2.35-.91-3.15-.64-.59-1.51-.91-2.39-.8Z"/>
</svg>