<svg width="880" height="466" viewBox="0 0 880 466" fill="none" xmlns="http://www.w3.org/2000/svg">
<path d="M817.8 0C817.8 211.801 646.101 383.5 434.3 383.5C222.499 383.5 50.7998 211.801 50.7998 0" stroke="url(#paint0_linear_1_47)" stroke-width="17"/>
<g filter="url(#filter0_di_1_47)">
<path d="M53.2998 118C77.048 118 96.2998 98.7482 96.2998 75C96.2998 51.2518 77.048 32 53.2998 32C29.5516 32 10.2998 51.2518 10.2998 75C10.2998 98.7482 29.5516 118 53.2998 118Z" fill="white"/>
<path d="M53.2998 118C77.048 118 96.2998 98.7482 96.2998 75C96.2998 51.2518 77.048 32 53.2998 32C29.5516 32 10.2998 51.2518 10.2998 75C10.2998 98.7482 29.5516 118 53.2998 118Z" fill="#FFF5F0"/>
</g>
<g filter="url(#filter1_di_1_47)">
<path d="M696.3 326C720.048 326 739.3 306.748 739.3 283C739.3 259.252 720.048 240 696.3 240C672.552 240 653.3 259.252 653.3 283C653.3 306.748 672.552 326 696.3 326Z" fill="white"/>
<path d="M696.3 326C720.048 326 739.3 306.748 739.3 283C739.3 259.252 720.048 240 696.3 240C672.552 240 653.3 259.252 653.3 283C653.3 306.748 672.552 326 696.3 326Z" fill="#FFF5F0"/>
</g>
<g filter="url(#filter2_di_1_47)">
<path d="M820.3 118C844.048 118 863.3 98.7482 863.3 75C863.3 51.2518 844.048 32 820.3 32C796.552 32 777.3 51.2518 777.3 75C777.3 98.7482 796.552 118 820.3 118Z" fill="white"/>
<path d="M820.3 118C844.048 118 863.3 98.7482 863.3 75C863.3 51.2518 844.048 32 820.3 32C796.552 32 777.3 51.2518 777.3 75C777.3 98.7482 796.552 118 820.3 118Z" fill="#FFF5F0"/>
</g>
<g filter="url(#filter3_di_1_47)">
<path d="M162.3 319C186.048 319 205.3 299.748 205.3 276C205.3 252.252 186.048 233 162.3 233C138.552 233 119.3 252.252 119.3 276C119.3 299.748 138.552 319 162.3 319Z" fill="white"/>
<path d="M162.3 319C186.048 319 205.3 299.748 205.3 276C205.3 252.252 186.048 233 162.3 233C138.552 233 119.3 252.252 119.3 276C119.3 299.748 138.552 319 162.3 319Z" fill="#FFF5F0"/>
</g>
<g filter="url(#filter4_di_1_47)">
<path d="M442.3 438C470.466 438 493.3 415.167 493.3 387C493.3 358.833 470.466 336 442.3 336C414.133 336 391.3 358.833 391.3 387C391.3 415.167 414.133 438 442.3 438Z" fill="#FFF5F0"/>
</g>
<path d="M451.729 388.249V400.879C451.73 402.212 451.34 403.513 450.613 404.609C449.885 405.704 448.855 406.543 447.658 407.012L443.367 408.696C443.176 408.771 442.971 408.797 442.77 408.771C442.568 408.745 442.375 408.669 442.208 408.548C442.041 408.427 441.904 408.266 441.81 408.078C441.716 407.89 441.666 407.681 441.667 407.469V392.083L433.262 395.284C432.779 395.469 432.362 395.805 432.068 396.245C431.774 396.685 431.616 397.209 431.616 397.745V418.376C431.616 420.198 433.351 421.464 434.994 420.838L460.172 411.246C461.382 410.786 462.427 409.948 463.166 408.848C463.904 407.747 464.3 406.436 464.3 405.093V378.882C464.299 380.224 463.902 381.534 463.164 382.634C462.426 383.735 461.381 384.572 460.172 385.033L451.729 388.249ZM451.729 386.875V383.085C451.729 381.751 451.339 380.449 450.611 379.353C449.883 378.257 448.851 377.418 447.653 376.949L443.371 375.27C443.181 375.196 442.977 375.171 442.775 375.197C442.573 375.223 442.381 375.3 442.214 375.42C442.047 375.541 441.91 375.702 441.816 375.889C441.721 376.077 441.672 376.285 441.672 376.497V388.355C441.672 390.166 439.95 391.432 438.314 390.825L421.97 384.738C421.481 384.556 421.058 384.221 420.759 383.779C420.46 383.337 420.3 382.809 420.3 382.268V361.622C420.3 359.811 422.022 358.545 423.66 359.155L460.13 372.733C461.153 373.114 462.064 373.765 462.774 374.623C463.484 375.48 463.969 376.515 464.181 377.626C463.844 379.85 461.579 383.124 459.745 383.821L451.729 386.875Z" fill="#0B53CE"/>
<mask id="mask0_1_47" style="mask-type:luminance" maskUnits="userSpaceOnUse" x="130" y="244" width="65" height="64">
<path d="M194.3 244H130.3V308H194.3V244Z" fill="white"/>
</mask>
<g mask="url(#mask0_1_47)">
<path d="M162.3 244C144.62 244 130.3 258.32 130.3 276C130.3 293.68 144.62 308 162.3 308C179.98 308 194.3 293.68 194.3 276C194.3 258.32 179.98 244 162.3 244ZM162.3 294.773C151.926 294.773 143.526 286.373 143.526 276C143.526 265.627 151.926 257.227 162.3 257.227C172.673 257.227 181.073 265.627 181.073 276C181.073 286.373 172.673 294.773 162.3 294.773Z" fill="#724A68"/>
</g>
<mask id="mask1_1_47" style="mask-type:luminance" maskUnits="userSpaceOnUse" x="789" y="44" width="63" height="62">
<path d="M851.3 44H789.3V106H851.3V44Z" fill="white"/>
</mask>
<g mask="url(#mask1_1_47)">
<path d="M850.989 75.0001C850.989 91.9471 837.246 105.69 820.299 105.69C803.352 105.69 789.609 91.9471 789.609 75.0001C789.609 58.0531 803.352 44.3101 820.299 44.3101C837.246 44.3101 850.989 58.0531 850.989 75.0001ZM832.466 66.9141C834.74 66.6561 837.013 67.457 838.641 68.981C840.836 71.048 841.766 74.0701 840.991 77.1181C840.346 79.6761 838.305 82.0011 835.541 82.8531C835.282 82.9311 834.791 82.9051 834.507 82.9571C833.293 83.1631 832.208 83.0601 831.02 82.9571C829.651 82.8531 828.281 82.9311 826.757 82.8791V58.3381C826.757 55.6771 824.691 53.6101 822.081 53.5581V87.8911H831.201C838.279 87.8911 843.859 81.6651 843.575 74.7161C843.291 67.7671 837.917 62.6521 831.175 62.3421C830.555 62.3161 829.961 62.2381 829.289 62.2641V67.1731C830.374 67.2501 831.304 67.0951 832.441 66.9661L832.466 66.9141ZM805.626 67.1211C807.072 66.8371 808.364 67.0691 809.656 67.0691L813.866 67.1211V91.6371C813.866 94.2721 815.856 96.416 818.542 96.468V62.2131H809.578C802.681 62.2131 797.049 67.8441 796.997 74.6901C796.946 81.5361 801.957 87.1161 808.7 87.6331C809.604 87.7101 810.379 87.7101 811.335 87.7101V83.0081C810.766 83.0081 810.069 82.8791 809.552 83.0081C805.161 84.1191 800.846 81.613 799.632 77.248C798.418 72.882 801.001 67.9731 805.651 67.0951L805.626 67.1211Z" fill="#2CA01C"/>
<path d="M805.625 67.121C801.001 67.999 798.392 72.856 799.606 77.273C800.82 81.691 805.109 84.145 809.526 83.034C810.043 82.905 810.741 83.034 811.335 83.034V87.736C810.38 87.736 809.604 87.736 808.699 87.658C801.957 87.142 796.945 81.484 796.997 74.716C797.049 67.947 802.68 62.264 809.578 62.238H818.543V96.493C815.856 96.442 813.866 94.323 813.866 91.662V67.147L809.681 67.095C808.389 67.095 807.098 66.862 805.651 67.147L805.625 67.121Z" fill="white"/>
<path d="M832.466 66.914C831.329 67.043 830.399 67.198 829.314 67.121V62.212C829.986 62.212 830.58 62.264 831.2 62.29C837.943 62.6 843.316 67.844 843.6 74.664C843.884 81.484 838.304 87.839 831.226 87.839H822.107V53.532C824.716 53.584 826.783 55.651 826.783 58.312V82.905C828.307 82.931 829.676 82.879 831.045 82.982C832.234 83.06 833.319 83.163 834.533 82.982C834.817 82.931 835.282 82.982 835.566 82.879C838.33 82.027 840.371 79.676 841.017 77.144C841.792 74.096 840.862 71.073 838.666 69.007C837.013 67.482 834.765 66.656 832.492 66.94L832.466 66.914Z" fill="white"/>
</g>
<mask id="mask2_1_47" style="mask-type:luminance" maskUnits="userSpaceOnUse" x="33" y="55" width="41" height="40">
<path d="M73.2998 55H33.2998V95H73.2998V55Z" fill="white"/>
</mask>
<g mask="url(#mask2_1_47)">
<path d="M68.6498 74.2501C70.7165 75.7831 72.4998 78.4501 72.9331 81.0001L73.2165 82.65C73.2998 83.15 73.3165 83.7671 73.2331 84.2671L72.8998 86.15C72.6331 87.667 71.5498 89.7 70.5165 90.883C68.5998 93.1 66.9498 93.983 64.1665 94.8C63.6498 94.95 63.1831 95.0001 62.5831 95.0001H35.3498H34.3498C33.9331 95.0001 33.3165 94.55 33.3165 94.05V83.783C33.3165 83.433 33.2998 82.95 33.3831 82.667C33.6665 81.817 34.0498 81.067 34.6498 80.4C35.8331 79.1 37.1831 78.8501 38.9665 78.2501L40.8665 77.5831L44.7665 76.2331L46.7831 75.533L48.8998 74.8L54.8165 72.7501L56.5331 72.167L60.2331 70.8831L63.8665 69.6331L66.0998 68.8671C67.7165 68.3171 68.5498 67.9171 69.6665 66.4671C71.0165 64.7331 71.0331 61.8171 69.7831 59.9671C68.7498 58.4501 67.3665 57.7331 65.5498 57.3671H37.0998H36.1165C35.9665 57.3671 35.7498 57.6501 35.6998 57.8331V76.8331C35.6331 77.2501 35.3831 77.6501 34.9831 77.7331C34.6831 77.8001 34.2998 77.8001 34.0165 77.7331C33.6165 77.6501 33.3831 77.2501 33.2998 76.8331V55.9831C33.3831 55.4501 33.6831 55.0001 34.2498 55.0001H65.4165C65.8331 55.0001 66.2998 54.95 66.6165 55.05C67.5165 55.3 68.3498 55.6 69.1331 56.067C70.9165 57.117 72.4998 59.0331 72.9165 61.0001L73.1498 62.15C73.2665 62.683 73.3331 63.3171 73.2165 63.8331L72.8998 65.3331C72.5665 66.9001 71.2665 68.7501 69.9331 69.7331C68.4331 70.8331 67.1998 71.1171 65.4498 71.7331L61.8331 72.9831L57.0165 74.65L54.3998 75.55L51.8831 76.417L49.7831 77.15L47.8831 77.8L44.1498 79.0831L42.1498 79.783L39.8498 80.5831L37.7165 81.3C36.1665 81.817 35.6998 83.0331 35.6998 84.5831V92.0171C35.6998 92.3001 35.9498 92.5831 36.2831 92.5831H62.2998L64.1331 92.1831C65.6831 91.8501 67.6331 90.5001 68.6498 89.2671C69.6665 88.0331 70.4831 86.2831 70.6331 84.6171C70.7831 82.9501 70.6998 81.4831 69.9998 79.9331C69.2998 78.3831 68.9498 77.9331 67.8165 76.8331C67.2165 76.2501 66.5665 75.8 65.8331 75.417C65.3831 75.183 64.9665 74.7501 64.9498 74.1831C64.9498 73.8331 65.2498 73.3001 65.5831 73.1331C66.5165 72.6331 67.8331 73.6671 68.6498 74.2671V74.2501Z" fill="#226DB4"/>
<path d="M62.9003 83.2501C62.9003 85.8671 60.7836 87.9831 58.1669 87.9831C55.5503 87.9831 53.4336 85.8671 53.4336 83.2501C53.4336 80.6331 55.5503 78.5171 58.1669 78.5171C60.7836 78.5171 62.9003 80.6331 62.9003 83.2501ZM59.7336 84.7831L59.7669 84.7501C60.1169 84.3831 60.3003 83.8831 60.3003 83.3831V83.1171C60.3003 82.6001 60.1003 82.1171 59.7503 81.7501C59.7503 81.7501 59.7169 81.7171 59.7169 81.7001C59.3503 81.3171 58.8169 81.1001 58.2836 81.1001H58.0003C57.4836 81.1001 56.9836 81.3001 56.6169 81.6671C56.6169 81.6671 56.6003 81.6831 56.5836 81.7001C56.2169 82.0671 56.0169 82.5671 56.0169 83.1001V83.4001C56.0169 83.9171 56.2169 84.4331 56.5836 84.8001C56.5836 84.8001 56.6003 84.8171 56.6169 84.8331C56.9836 85.2001 57.4836 85.4001 58.0003 85.4001H58.2669C58.8169 85.4001 59.3503 85.1831 59.7336 84.7671V84.7831Z" fill="#226DB4"/>
<path d="M51.2158 66.717C51.2158 69.333 49.0991 71.467 46.4658 71.467C43.8325 71.467 41.7158 69.35 41.7158 66.717C41.7158 64.083 43.8325 61.967 46.4658 61.967C49.0991 61.967 51.2158 64.083 51.2158 66.717ZM48.7158 66.717C48.7158 65.483 47.7158 64.467 46.4658 64.467C45.2158 64.467 44.2158 65.467 44.2158 66.717C44.2158 67.967 45.2158 68.967 46.4658 68.967C47.7158 68.967 48.7158 67.967 48.7158 66.717Z" fill="#226DB4"/>
</g>
<path d="M696.3 317C715.077 317 730.3 301.778 730.3 283C730.3 264.222 715.077 249 696.3 249C677.522 249 662.3 264.222 662.3 283C662.3 301.778 677.522 317 696.3 317Z" fill="#02B6E2"/>
<path d="M684.362 288.633C684.858 289.129 684.829 289.8 684.362 290.238C683.895 290.705 683.253 290.559 682.757 290.092L677.095 284.43L671.229 290.267C670.821 290.676 670.033 290.53 669.741 290.121C669.391 289.654 669.449 289.1 669.916 288.633L675.607 282.912L669.858 277.134C669.42 276.696 669.42 276.142 669.741 275.704C670.062 275.324 670.792 275.12 671.229 275.558L677.095 281.395L683.02 275.529C683.37 275.179 684.07 275.354 684.362 275.616C684.654 275.879 684.888 276.609 684.479 276.988L678.585 282.912L684.304 288.633H684.362Z" fill="#FEFEFE"/>
<path d="M704.705 278.097C704.15 278.535 703.917 279.323 703.888 280.023L703.829 289.537C703.829 290.063 703.217 290.413 702.808 290.413C702.312 290.413 701.757 290.004 701.757 289.421V276.375C701.757 275.85 702.312 275.529 702.72 275.47C703.217 275.412 703.625 275.733 703.888 276.229C704.793 275.47 707.769 274.712 707.886 276.404C707.915 277.046 707.361 277.455 706.719 277.484C706.077 277.513 705.318 277.63 704.763 278.068L704.705 278.097Z" fill="#FEFEFE"/>
<path d="M690.113 287.991C692.564 288.983 695.162 288.107 696.621 286.064C696.942 285.597 697.496 285.51 697.993 285.743C698.372 285.918 698.751 286.619 698.459 287.144C697.321 289.041 695.337 290.238 693.119 290.53C688.887 291.084 684.976 287.903 684.626 283.671C684.276 279.41 687.34 275.704 691.572 275.383C695.424 275.062 698.751 277.513 699.656 281.249C699.919 282.329 699.423 283.73 698.109 283.73L686.815 283.817C687.165 285.714 688.391 287.319 690.171 288.049L690.113 287.991Z" fill="#FEFEFE"/>
<path d="M686.844 281.599C687.486 279.118 689.675 277.455 692.126 277.426C694.578 277.397 696.854 279.089 697.526 281.599H686.844Z" fill="#02B6E2"/>
<path d="M714.949 290.559C719.172 290.559 722.595 287.135 722.595 282.912C722.595 278.689 719.172 275.266 714.949 275.266C710.726 275.266 707.302 278.689 707.302 282.912C707.302 287.135 710.726 290.559 714.949 290.559Z" fill="#FEFEFE"/>
<path d="M714.949 288.37C717.963 288.37 720.406 285.927 720.406 282.912C720.406 279.898 717.963 277.455 714.949 277.455C711.935 277.455 709.491 279.898 709.491 282.912C709.491 285.927 711.935 288.37 714.949 288.37Z" fill="#02B6E2"/>
<path d="M714.949 284.78C715.996 284.78 716.846 283.931 716.846 282.883C716.846 281.836 715.996 280.986 714.949 280.986C713.901 280.986 713.052 281.836 713.052 282.883C713.052 283.931 713.901 284.78 714.949 284.78Z" fill="#FDFEFE"/>
<defs>
<filter id="filter0_di_1_47" x="-0.000195503" y="32" width="112.6" height="113.3" filterUnits="userSpaceOnUse" color-interpolation-filters="sRGB">
<feFlood flood-opacity="0" result="BackgroundImageFix"/>
<feColorMatrix in="SourceAlpha" type="matrix" values="0 0 0 0 0 0 0 0 0 0 0 0 0 0 0 0 0 0 127 0" result="hardAlpha"/>
<feOffset dx="3" dy="14"/>
<feGaussianBlur stdDeviation="6.65"/>
<feComposite in2="hardAlpha" operator="out"/>
<feColorMatrix type="matrix" values="0 0 0 0 0.784615 0 0 0 0 0.784615 0 0 0 0 0.784615 0 0 0 0.44 0"/>
<feBlend mode="normal" in2="BackgroundImageFix" result="effect1_dropShadow_1_47"/>
<feBlend mode="normal" in="SourceGraphic" in2="effect1_dropShadow_1_47" result="shape"/>
<feColorMatrix in="SourceAlpha" type="matrix" values="0 0 0 0 0 0 0 0 0 0 0 0 0 0 0 0 0 0 127 0" result="hardAlpha"/>
<feOffset dx="2" dy="8"/>
<feGaussianBlur stdDeviation="3.8"/>
<feComposite in2="hardAlpha" operator="arithmetic" k2="-1" k3="1"/>
<feColorMatrix type="matrix" values="0 0 0 0 1 0 0 0 0 1 0 0 0 0 1 0 0 0 1 0"/>
<feBlend mode="normal" in2="shape" result="effect2_innerShadow_1_47"/>
</filter>
<filter id="filter1_di_1_47" x="643" y="240" width="112.6" height="113.3" filterUnits="userSpaceOnUse" color-interpolation-filters="sRGB">
<feFlood flood-opacity="0" result="BackgroundImageFix"/>
<feColorMatrix in="SourceAlpha" type="matrix" values="0 0 0 0 0 0 0 0 0 0 0 0 0 0 0 0 0 0 127 0" result="hardAlpha"/>
<feOffset dx="3" dy="14"/>
<feGaussianBlur stdDeviation="6.65"/>
<feComposite in2="hardAlpha" operator="out"/>
<feColorMatrix type="matrix" values="0 0 0 0 0.784615 0 0 0 0 0.784615 0 0 0 0 0.784615 0 0 0 0.44 0"/>
<feBlend mode="normal" in2="BackgroundImageFix" result="effect1_dropShadow_1_47"/>
<feBlend mode="normal" in="SourceGraphic" in2="effect1_dropShadow_1_47" result="shape"/>
<feColorMatrix in="SourceAlpha" type="matrix" values="0 0 0 0 0 0 0 0 0 0 0 0 0 0 0 0 0 0 127 0" result="hardAlpha"/>
<feOffset dx="2" dy="8"/>
<feGaussianBlur stdDeviation="3.8"/>
<feComposite in2="hardAlpha" operator="arithmetic" k2="-1" k3="1"/>
<feColorMatrix type="matrix" values="0 0 0 0 1 0 0 0 0 1 0 0 0 0 1 0 0 0 1 0"/>
<feBlend mode="normal" in2="shape" result="effect2_innerShadow_1_47"/>
</filter>
<filter id="filter2_di_1_47" x="767" y="32" width="112.6" height="113.3" filterUnits="userSpaceOnUse" color-interpolation-filters="sRGB">
<feFlood flood-opacity="0" result="BackgroundImageFix"/>
<feColorMatrix in="SourceAlpha" type="matrix" values="0 0 0 0 0 0 0 0 0 0 0 0 0 0 0 0 0 0 127 0" result="hardAlpha"/>
<feOffset dx="3" dy="14"/>
<feGaussianBlur stdDeviation="6.65"/>
<feComposite in2="hardAlpha" operator="out"/>
<feColorMatrix type="matrix" values="0 0 0 0 0.784615 0 0 0 0 0.784615 0 0 0 0 0.784615 0 0 0 0.44 0"/>
<feBlend mode="normal" in2="BackgroundImageFix" result="effect1_dropShadow_1_47"/>
<feBlend mode="normal" in="SourceGraphic" in2="effect1_dropShadow_1_47" result="shape"/>
<feColorMatrix in="SourceAlpha" type="matrix" values="0 0 0 0 0 0 0 0 0 0 0 0 0 0 0 0 0 0 127 0" result="hardAlpha"/>
<feOffset dx="2" dy="8"/>
<feGaussianBlur stdDeviation="3.8"/>
<feComposite in2="hardAlpha" operator="arithmetic" k2="-1" k3="1"/>
<feColorMatrix type="matrix" values="0 0 0 0 1 0 0 0 0 1 0 0 0 0 1 0 0 0 1 0"/>
<feBlend mode="normal" in2="shape" result="effect2_innerShadow_1_47"/>
</filter>
<filter id="filter3_di_1_47" x="109" y="233" width="112.6" height="113.3" filterUnits="userSpaceOnUse" color-interpolation-filters="sRGB">
<feFlood flood-opacity="0" result="BackgroundImageFix"/>
<feColorMatrix in="SourceAlpha" type="matrix" values="0 0 0 0 0 0 0 0 0 0 0 0 0 0 0 0 0 0 127 0" result="hardAlpha"/>
<feOffset dx="3" dy="14"/>
<feGaussianBlur stdDeviation="6.65"/>
<feComposite in2="hardAlpha" operator="out"/>
<feColorMatrix type="matrix" values="0 0 0 0 0.784615 0 0 0 0 0.784615 0 0 0 0 0.784615 0 0 0 0.44 0"/>
<feBlend mode="normal" in2="BackgroundImageFix" result="effect1_dropShadow_1_47"/>
<feBlend mode="normal" in="SourceGraphic" in2="effect1_dropShadow_1_47" result="shape"/>
<feColorMatrix in="SourceAlpha" type="matrix" values="0 0 0 0 0 0 0 0 0 0 0 0 0 0 0 0 0 0 127 0" result="hardAlpha"/>
<feOffset dx="2" dy="8"/>
<feGaussianBlur stdDeviation="3.8"/>
<feComposite in2="hardAlpha" operator="arithmetic" k2="-1" k3="1"/>
<feColorMatrix type="matrix" values="0 0 0 0 1 0 0 0 0 1 0 0 0 0 1 0 0 0 1 0"/>
<feBlend mode="normal" in2="shape" result="effect2_innerShadow_1_47"/>
</filter>
<filter id="filter4_di_1_47" x="381" y="336" width="128.6" height="129.3" filterUnits="userSpaceOnUse" color-interpolation-filters="sRGB">
<feFlood flood-opacity="0" result="BackgroundImageFix"/>
<feColorMatrix in="SourceAlpha" type="matrix" values="0 0 0 0 0 0 0 0 0 0 0 0 0 0 0 0 0 0 127 0" result="hardAlpha"/>
<feOffset dx="3" dy="14"/>
<feGaussianBlur stdDeviation="6.65"/>
<feComposite in2="hardAlpha" operator="out"/>
<feColorMatrix type="matrix" values="0 0 0 0 0.784615 0 0 0 0 0.784615 0 0 0 0 0.784615 0 0 0 0.44 0"/>
<feBlend mode="normal" in2="BackgroundImageFix" result="effect1_dropShadow_1_47"/>
<feBlend mode="normal" in="SourceGraphic" in2="effect1_dropShadow_1_47" result="shape"/>
<feColorMatrix in="SourceAlpha" type="matrix" values="0 0 0 0 0 0 0 0 0 0 0 0 0 0 0 0 0 0 127 0" result="hardAlpha"/>
<feOffset dx="2" dy="8"/>
<feGaussianBlur stdDeviation="3.8"/>
<feComposite in2="hardAlpha" operator="arithmetic" k2="-1" k3="1"/>
<feColorMatrix type="matrix" values="0 0 0 0 1 0 0 0 0 1 0 0 0 0 1 0 0 0 1 0"/>
<feBlend mode="normal" in2="shape" result="effect2_innerShadow_1_47"/>
</filter>
<linearGradient id="paint0_linear_1_47" x1="434.3" y1="-85.5" x2="434.3" y2="392" gradientUnits="userSpaceOnUse">
<stop stop-color="#FFF5F0"/>
<stop offset="1" stop-color="white"/>
</linearGradient>
</defs>
</svg>
