<?xml version="1.0" encoding="UTF-8"?>
<svg id="Layer_1" xmlns="http://www.w3.org/2000/svg" version="1.1" viewBox="0 0 24 24">
  <!-- Generator: Adobe Illustrator 30.1.0, SVG Export Plug-In . SVG Version: 2.1.1 Build 136)  -->
  <defs>
    <style>
      .st0 {
        fill: #02b6e2;
      }

      .st1 {
        fill: #fefefe;
      }

      .st2 {
        fill: #fdfefe;
      }
    </style>
  </defs>
  <circle class="st0" cx="12" cy="12" r="11.65"/>
  <path class="st1" d="M7.91,13.93c.17.17.16.4,0,.55-.16.16-.38.11-.55-.05l-1.94-1.94-2.01,2c-.14.14-.41.09-.51-.05-.12-.16-.1-.35.06-.51l1.95-1.96-1.97-1.98c-.15-.15-.15-.34-.04-.49.11-.13.36-.2.51-.05l2.01,2,2.03-2.01c.12-.12.36-.06.46.03s.18.34.04.47l-2.02,2.03,1.96,1.96Z"/>
  <path class="st1" d="M14.88,10.32c-.19.15-.27.42-.28.66l-.02,3.26c0,.18-.21.3-.35.3-.17,0-.36-.14-.36-.34v-4.47c0-.18.19-.29.33-.31.17-.02.31.09.4.26.31-.26,1.33-.52,1.37.06.01.22-.18.36-.4.37s-.48.05-.67.2Z"/>
  <g>
    <path class="st1" d="M9.88,13.71c.84.34,1.73.04,2.23-.66.11-.16.3-.19.47-.11.13.06.26.3.16.48-.39.65-1.07,1.06-1.83,1.16-1.45.19-2.79-.9-2.91-2.35-.12-1.46.93-2.73,2.38-2.84,1.32-.11,2.46.73,2.77,2.01.09.37-.08.85-.53.85l-3.87.03c.12.65.54,1.2,1.15,1.45Z"/>
    <path class="st0" d="M12.41,11.52h-3.65c.22-.85.97-1.42,1.81-1.43s1.62.57,1.85,1.43Z"/>
  </g>
  <g>
    <circle class="st1" cx="18.39" cy="11.97" r="2.62"/>
    <g>
      <circle class="st0" cx="18.39" cy="11.97" r="1.87"/>
      <circle class="st2" cx="18.39" cy="11.96" r=".65"/>
    </g>
  </g>
</svg>