<?xml version="1.0" encoding="UTF-8"?>
<svg id="Layer_1" xmlns="http://www.w3.org/2000/svg" version="1.1" viewBox="0 0 24 24">
  <!-- Generator: Adobe Illustrator 30.1.0, SVG Export Plug-In . SVG Version: 2.1.1 Build 136)  -->
  <defs>
    <style>
      .st0 {
        fill: #226db4;
      }
    </style>
  </defs>
  <path class="st0" d="M21.21,11.55c1.24.92,2.31,2.52,2.57,4.05l.17.99c.05.3.06.67.01.97l-.2,1.13c-.16.91-.81,2.13-1.43,2.84-1.15,1.33-2.14,1.86-3.81,2.35-.31.09-.59.12-.95.12H1.23s-.6,0-.6,0c-.25,0-.62-.27-.62-.57v-6.16c0-.21-.01-.5.04-.67.17-.51.4-.96.76-1.36.71-.78,1.52-.93,2.59-1.29l1.14-.4,2.34-.81,1.21-.42,1.27-.44,3.55-1.23,1.03-.35,2.22-.77,2.18-.75,1.34-.46c.97-.33,1.47-.57,2.14-1.44.81-1.04.82-2.79.07-3.9-.62-.91-1.45-1.34-2.54-1.56H2.28s-.59,0-.59,0c-.09,0-.22.17-.25.28v11.4c-.04.25-.19.49-.43.54-.18.04-.41.04-.58,0-.24-.05-.38-.29-.43-.54V.59C.05.27.23,0,.57,0h18.7c.25,0,.53-.03.72.03.54.15,1.04.33,1.51.61,1.07.63,2.02,1.78,2.27,2.96l.14.69c.07.32.11.7.04,1.01l-.19.9c-.2.94-.98,2.05-1.78,2.64-.9.66-1.64.83-2.69,1.2l-2.17.75-2.89,1-1.57.54-1.51.52-1.26.44-1.14.39-2.24.77-1.2.42-1.38.48-1.28.43c-.93.31-1.21,1.04-1.21,1.97v4.46c0,.17.15.34.35.34h15.61s1.1-.24,1.1-.24c.93-.2,2.1-1.01,2.71-1.75s1.1-1.79,1.19-2.79.04-1.88-.38-2.81-.63-1.2-1.31-1.86c-.36-.35-.75-.62-1.19-.85-.27-.14-.52-.4-.53-.74,0-.21.18-.53.38-.63.56-.3,1.35.32,1.84.68Z"/>
  <path class="st0" d="M17.76,16.95c0,1.57-1.27,2.84-2.84,2.84s-2.84-1.27-2.84-2.84,1.27-2.84,2.84-2.84,2.84,1.27,2.84,2.84ZM15.86,17.87s.02-.02.02-.02c.21-.22.32-.52.32-.82v-.16c0-.31-.12-.6-.33-.82,0,0-.02-.02-.02-.03-.22-.23-.54-.36-.86-.36h-.17c-.31,0-.61.12-.83.34,0,0-.01.01-.02.02-.22.22-.34.52-.34.84v.18c0,.31.12.62.34.84,0,0,.01.01.02.02.22.22.52.34.83.34h.16c.33,0,.65-.13.88-.38Z"/>
  <path class="st0" d="M10.75,7.03c0,1.57-1.27,2.85-2.85,2.85s-2.85-1.27-2.85-2.85,1.27-2.85,2.85-2.85,2.85,1.27,2.85,2.85ZM9.25,7.03c0-.74-.6-1.35-1.35-1.35s-1.35.6-1.35,1.35.6,1.35,1.35,1.35,1.35-.6,1.35-1.35Z"/>
</svg>